<?xml version="1.0"?>
<svg xmlns="http://www.w3.org/2000/svg" viewBox="0 0 64 64" width="512" height="512"><g id="Idea"><path d="M28,29a1,1,0,0,1-.707-.293l-3-3a1,1,0,0,1,0-1.414l3-3a1,1,0,0,1,1.414,1.414L26.414,25l2.293,2.293A1,1,0,0,1,28,29Z"/><path d="M36,29a1,1,0,0,1-.707-1.707L37.586,25l-2.293-2.293a1,1,0,0,1,1.414-1.414l3,3a1,1,0,0,1,0,1.414l-3,3A1,1,0,0,1,36,29Z"/><path d="M31,30a.976.976,0,0,1-.244-.03,1,1,0,0,1-.727-1.213l2-8a1,1,0,0,1,1.94.486l-2,8A1,1,0,0,1,31,30Z"/><path d="M32,6a1,1,0,0,1-1-1V3a1,1,0,0,1,2,0V5A1,1,0,0,1,32,6Z"/><path d="M22,8.68a1,1,0,0,1-.867-.5l-1-1.733a1,1,0,0,1,1.732-1l1,1.733A1,1,0,0,1,22,8.68Z"/><path d="M14.679,16a.992.992,0,0,1-.5-.134l-1.733-1a1,1,0,0,1,1-1.732l1.733,1a1,1,0,0,1-.5,1.866Z"/><path d="M12,26H10a1,1,0,0,1,0-2h2a1,1,0,0,1,0,2Z"/><path d="M12.948,37a1,1,0,0,1-.5-1.866l1.733-1a1,1,0,1,1,1,1.732l-1.733,1A.992.992,0,0,1,12.948,37Z"/><path d="M21,45.053a1,1,0,0,1-.865-1.5l1-1.733a1,1,0,0,1,1.732,1l-1,1.733A1,1,0,0,1,21,45.053Z"/><path d="M43,45.053a1,1,0,0,1-.867-.5l-1-1.733a1,1,0,1,1,1.732-1l1,1.733a1,1,0,0,1-.865,1.5Z"/><path d="M51.052,37a.992.992,0,0,1-.5-.134l-1.733-1a1,1,0,1,1,1-1.732l1.733,1a1,1,0,0,1-.5,1.866Z"/><path d="M54,26H52a1,1,0,0,1,0-2h2a1,1,0,0,1,0,2Z"/><path d="M49.321,16a1,1,0,0,1-.5-1.866l1.733-1a1,1,0,0,1,1,1.732l-1.733,1A.992.992,0,0,1,49.321,16Z"/><path d="M42,8.68a1,1,0,0,1-.865-1.5l1-1.733a1,1,0,0,1,1.732,1l-1,1.733A1,1,0,0,1,42,8.68Z"/><path d="M32.858,8.021A17,17,0,0,0,22.8,39.292a4.878,4.878,0,0,1,2.2,4.14V44a1.993,1.993,0,0,0,1,1.722V55a3,3,0,0,0,2,2.816V58a4,4,0,0,0,8,0v-.184A3,3,0,0,0,38,55V45.722A1.993,1.993,0,0,0,39,44v-.674a4.967,4.967,0,0,1,2.327-4.115,17,17,0,0,0-8.469-31.19ZM32,35A10,10,0,1,1,42,25,10.011,10.011,0,0,1,32,35Zm-1,1.949c.331.028.662.051,1,.051s.669-.023,1-.051V44H31ZM36,46v2H28V46Zm-8,4h8v2H28Zm4,10a2,2,0,0,1-2-2h4A2,2,0,0,1,32,60Zm4-5a1,1,0,0,1-1,1H29a1,1,0,0,1-1-1V54h8Zm4.23-17.46A6.956,6.956,0,0,0,37,43.326V44H35V36.6a12,12,0,1,0-6,0V44H27v-.568a6.869,6.869,0,0,0-3.122-5.822A15,15,0,0,1,31.993,10q.382,0,.766.019A15,15,0,0,1,40.23,37.54Z"/></g></svg>
