<svg xmlns="http://www.w3.org/2000/svg" height="620pt" version="1.1" viewBox="0 -10 620 620" width="620pt">
<g id="surface1">
<path d="M 200 80 L 420 80 L 420 100 L 200 100 Z M 200 80 " style=" stroke:none;fill-rule:nonzero;fill:rgb(0%,0%,0%);fill-opacity:1;" />
<path d="M 230 50 L 390 50 L 390 70 L 230 70 Z M 230 50 " style=" stroke:none;fill-rule:nonzero;fill:rgb(0%,0%,0%);fill-opacity:1;" />
<path d="M 200 500 L 420 500 L 420 520 L 200 520 Z M 200 500 " style=" stroke:none;fill-rule:nonzero;fill:rgb(0%,0%,0%);fill-opacity:1;" />
<path d="M 230 530 L 390 530 L 390 550 L 230 550 Z M 230 530 " style=" stroke:none;fill-rule:nonzero;fill:rgb(0%,0%,0%);fill-opacity:1;" />
<path d="M 619.828125 169.171875 C 619.765625 168.492188 619.632812 167.820312 619.429688 167.167969 C 619.109375 165.96875 618.53125 164.851562 617.730469 163.902344 C 617.3125 163.355469 616.835938 162.855469 616.308594 162.421875 C 616.089844 162.230469 615.972656 161.984375 615.734375 161.8125 L 520 94.789062 L 520 10 C 520 4.476562 515.523438 0 510 0 L 110 0 C 104.476562 0 100 4.476562 100 10 L 100 94.789062 L 4.265625 161.792969 C 4.027344 161.957031 3.910156 162.210938 3.679688 162.402344 C 3.160156 162.84375 2.6875 163.335938 2.269531 163.882812 C 1.46875 164.828125 0.890625 165.945312 0.570312 167.148438 C 0.367188 167.804688 0.234375 168.472656 0.171875 169.148438 C 0.0976562 169.429688 0.0429688 169.710938 0 170 L 0 430 C 0 435.523438 4.476562 440 10 440 L 100 440 L 100 590 C 100 595.523438 104.476562 600 110 600 L 510 600 C 515.523438 600 520 595.523438 520 590 L 520 440 L 610 440 C 615.523438 440 620 435.523438 620 430 L 620 170 C 619.957031 169.722656 619.902344 169.445312 619.828125 169.171875 Z M 578.28125 160 L 520 160 L 520 119.210938 Z M 500 20 L 500 160 L 470 160 L 470 120 C 470 114.476562 465.523438 110 460 110 L 160 110 C 154.476562 110 150 114.476562 150 120 L 150 160 L 120 160 L 120 20 Z M 170 160 L 170 130 L 450 130 L 450 160 Z M 100 160 L 41.71875 160 L 100 119.210938 Z M 500 580 L 120 580 L 120 440 L 150 440 L 150 480 C 150 485.523438 154.476562 490 160 490 L 460 490 C 465.523438 490 470 485.523438 470 480 L 470 440 L 500 440 Z M 450 440 L 450 470 L 170 470 L 170 440 Z M 600 420 L 20 420 L 20 180 L 600 180 Z M 600 420 " style=" stroke:none;fill-rule:nonzero;fill:rgb(0%,0%,0%);fill-opacity:1;" />
<path d="M 240 210 C 234.476562 210 230 214.476562 230 220 L 230 340 C 230 356.566406 216.566406 370 200 370 C 183.433594 370 170 356.566406 170 340 C 170 334.476562 165.523438 330 160 330 C 154.476562 330 150 334.476562 150 340 C 150 367.613281 172.386719 390 200 390 C 227.613281 390 250 367.613281 250 340 L 250 220 C 250 214.476562 245.523438 210 240 210 Z M 240 210 " style=" stroke:none;fill-rule:nonzero;fill:rgb(0%,0%,0%);fill-opacity:1;" />
<path d="M 290 230 L 350 230 C 355.523438 230 360 225.523438 360 220 C 360 214.476562 355.523438 210 350 210 L 290 210 C 273.433594 210 260 223.433594 260 240 L 260 280 C 260 296.566406 273.433594 310 290 310 L 330 310 C 335.523438 310 340 314.476562 340 320 L 340 360 C 340 365.523438 335.523438 370 330 370 L 270 370 C 264.476562 370 260 374.476562 260 380 C 260 385.523438 264.476562 390 270 390 L 330 390 C 346.566406 390 360 376.566406 360 360 L 360 320 C 360 303.433594 346.566406 290 330 290 L 290 290 C 284.476562 290 280 285.523438 280 280 L 280 240 C 280 234.476562 284.476562 230 290 230 Z M 290 230 " style=" stroke:none;fill-rule:nonzero;fill:rgb(0%,0%,0%);fill-opacity:1;" />
<path d="M 440 210 L 380 210 C 374.476562 210 370 214.476562 370 220 L 370 380 C 370 385.523438 374.476562 390 380 390 C 385.523438 390 390 385.523438 390 380 L 390 310 L 440 310 C 456.566406 310 470 296.566406 470 280 L 470 240 C 470 223.433594 456.566406 210 440 210 Z M 450 280 C 450 285.523438 445.523438 290 440 290 L 390 290 L 390 230 L 440 230 C 445.523438 230 450 234.476562 450 240 Z M 450 280 " style=" stroke:none;fill-rule:nonzero;fill:rgb(0%,0%,0%);fill-opacity:1;" />
</g>
</svg>