<svg id="Layer_1" enable-background="new 0 0 512 512" height="512" viewBox="0 0 512 512" width="512" xmlns="http://www.w3.org/2000/svg"><g><path d="m504.5 201.98c4.143 0 7.5-3.358 7.5-7.5v-98.14c0-4.142-3.357-7.5-7.5-7.5h-91v-81.34c0-4.142-3.357-7.5-7.5-7.5h-300c-4.143 0-7.5 3.358-7.5 7.5v81.34h-91c-4.143 0-7.5 3.358-7.5 7.5v98.141c0 4.142 3.357 7.5 7.5 7.5h8v24.971h-8c-4.143 0-7.5 3.358-7.5 7.5v211.635c0 4.142 3.357 7.5 7.5 7.5h213.772v14.207h-15.272c-4.143 0-7.5 3.358-7.5 7.5s3.357 7.5 7.5 7.5h15.272v14.206h-95.272c-4.143 0-7.5 3.358-7.5 7.5s3.357 7.5 7.5 7.5h260c4.143 0 7.5-3.358 7.5-7.5s-3.357-7.5-7.5-7.5h-95.272v-14.207h15.272c4.143 0 7.5-3.358 7.5-7.5s-3.357-7.5-7.5-7.5h-15.272v-14.207h213.772c4.143 0 7.5-3.358 7.5-7.5v-147.033c0-4.142-3.357-7.5-7.5-7.5s-7.5 3.358-7.5 7.5v139.534h-482v-196.635h8c4.143 0 7.5-3.358 7.5-7.5v-39.972c0-4.142-3.357-7.5-7.5-7.5h-8v-83.14h83.5v14.978h-37.5c-4.143 0-7.5 3.358-7.5 7.5v268.593c0 1.99.791 3.898 2.198 5.305l21.213 21.198c1.407 1.405 3.313 2.195 5.302 2.195h30.205c4.143 0 7.5-3.358 7.5-7.5s-3.357-7.5-7.5-7.5h-27.1l-16.818-16.807v-257.984h30v237.352c0 4.142 3.357 7.5 7.5 7.5h300c4.143 0 7.5-3.358 7.5-7.5v-158.244c0-4.142-3.357-7.5-7.5-7.5s-7.5 3.358-7.5 7.5v150.744h-285v-288.71h150.108c4.143 0 7.5-3.358 7.5-7.5s-3.357-7.5-7.5-7.5h-150.108v-44.96h285v44.96h-100.5c-4.143 0-7.5 3.358-7.5 7.5s3.357 7.5 7.5 7.5h100.5v102.882c0 4.142 3.357 7.5 7.5 7.5s7.5-3.358 7.5-7.5v-44.024h30v257.984l-16.818 16.806h-279.413c-4.143 0-7.5 3.358-7.5 7.5s3.357 7.5 7.5 7.5h282.519c1.988 0 3.896-.79 5.302-2.195l21.213-21.198c1.407-1.407 2.198-3.315 2.198-5.305v-268.592c0-4.142-3.357-7.5-7.5-7.5h-37.5v-14.978h83.499v83.141h-8c-4.143 0-7.5 3.358-7.5 7.5v39.971c0 4.142 3.357 7.5 7.5 7.5h8v22.409c0 4.142 3.357 7.5 7.5 7.5s7.5-3.358 7.5-7.5v-29.909c0-4.142-3.357-7.5-7.5-7.5h-8v-24.972zm-268.228 251.607h39.455v14.207h-39.455zm0 29.206h39.455v14.207h-39.455z"/><path d="m185.5 187.942h19.469c4.143 0 7.5-3.358 7.5-7.5s-3.357-7.5-7.5-7.5h-19.469c-14.871 0-26.969 12.092-26.969 26.956s12.098 26.956 26.969 26.956c6.6 0 11.969 5.363 11.969 11.956 0 6.592-5.369 11.956-11.969 11.956h-19.469c-4.143 0-7.5 3.358-7.5 7.5s3.357 7.5 7.5 7.5h19.469c14.871 0 26.969-12.092 26.969-26.956 0-14.863-12.098-26.956-26.969-26.956-6.6 0-11.969-5.363-11.969-11.956s5.369-11.956 11.969-11.956z"/><path d="m281.406 199.911c0-14.871-12.098-26.969-26.969-26.969s-26.969 12.098-26.969 26.969v38.886c0 14.871 12.098 26.969 26.969 26.969h22.642c4.143 0 7.5-3.358 7.5-7.5 0-3.645-2.601-6.683-6.048-7.359 1.839-3.643 2.875-7.758 2.875-12.11zm-15 38.885c0 6.6-5.369 11.969-11.969 11.969s-11.969-5.369-11.969-11.969v-38.886c0-6.6 5.369-11.969 11.969-11.969s11.969 5.369 11.969 11.969z"/><path d="m308.029 172.942c-4.143 0-7.5 3.358-7.5 7.5v77.823c0 4.142 3.357 7.5 7.5 7.5h37.939c4.143 0 7.5-3.358 7.5-7.5s-3.357-7.5-7.5-7.5h-30.439v-70.323c0-4.142-3.357-7.5-7.5-7.5z"/><path d="m155.478 127.683h49.238c4.143 0 7.5-3.358 7.5-7.5s-3.357-7.5-7.5-7.5h-49.238c-4.143 0-7.5 3.358-7.5 7.5s3.357 7.5 7.5 7.5z"/><path d="m355.478 112.683h-115.671c-4.143 0-7.5 3.358-7.5 7.5s3.357 7.5 7.5 7.5h115.671c4.143 0 7.5-3.358 7.5-7.5s-3.358-7.5-7.5-7.5z"/><path d="m155.478 326.024h49.238c4.143 0 7.5-3.358 7.5-7.5s-3.357-7.5-7.5-7.5h-49.238c-4.143 0-7.5 3.358-7.5 7.5s3.357 7.5 7.5 7.5z"/><path d="m239.807 326.024h115.671c4.143 0 7.5-3.358 7.5-7.5s-3.357-7.5-7.5-7.5h-115.671c-4.143 0-7.5 3.358-7.5 7.5s3.357 7.5 7.5 7.5z"/><path d="m130.18 37.584c0 4.143 3.358 7.501 7.5 7.501s7.5-3.358 7.5-7.501-3.358-7.501-7.5-7.501-7.5 3.358-7.5 7.501z"/><path d="m159.18 37.584c0 4.143 3.358 7.501 7.5 7.501s7.5-3.358 7.5-7.501-3.358-7.501-7.5-7.501-7.5 3.358-7.5 7.501z"/><path d="m188.18 37.584c0 4.143 3.358 7.501 7.5 7.501s7.5-3.358 7.5-7.501-3.358-7.501-7.5-7.501-7.5 3.358-7.5 7.501z"/></g></svg>